<svg width="240" height="14" viewBox="0 0 240 14" fill="none" xmlns="http://www.w3.org/2000/svg">
<path d="M4.83692 10.156C4.04826 10.156 3.35059 9.96967 2.74392 9.597C2.13726 9.21567 1.66492 8.67833 1.32692 7.985C0.988922 7.283 0.819922 6.451 0.819922 5.489C0.819922 4.56167 0.988922 3.74267 1.32692 3.032C1.67359 2.31267 2.15892 1.75367 2.78292 1.355C3.41559 0.947666 4.15226 0.744 4.99292 0.744C5.42626 0.744 5.82059 0.787333 6.17592 0.874C6.53126 0.952 6.86492 1.06467 7.17692 1.212L6.79992 2.252C6.53126 2.122 6.25392 2.018 5.96792 1.94C5.69059 1.862 5.36126 1.823 4.97992 1.823C4.42526 1.823 3.92692 1.966 3.48492 2.252C3.05159 2.538 2.70926 2.94967 2.45792 3.487C2.20659 4.02433 2.08092 4.67433 2.08092 5.437C2.08092 6.165 2.20226 6.802 2.44492 7.348C2.69626 7.894 3.03859 8.31867 3.47192 8.622C3.91392 8.92533 4.41659 9.077 4.97992 9.077C5.40459 9.077 5.77292 9.025 6.08492 8.921C6.39692 8.817 6.70026 8.68267 6.99492 8.518L7.37192 9.545C7.05126 9.71833 6.68292 9.86567 6.26692 9.987C5.85959 10.0997 5.38292 10.156 4.83692 10.156ZM11.3821 10.156C10.7408 10.156 10.1645 10.0087 9.65312 9.714C9.14178 9.41067 8.73878 8.99467 8.44412 8.466C8.15812 7.92867 8.01512 7.31333 8.01512 6.62C8.01512 5.892 8.16245 5.26367 8.45712 4.735C8.75178 4.20633 9.15478 3.799 9.66612 3.513C10.1775 3.227 10.7495 3.084 11.3821 3.084C12.0148 3.084 12.5825 3.227 13.0851 3.513C13.5965 3.799 13.9995 4.20633 14.2941 4.735C14.5975 5.255 14.7491 5.87467 14.7491 6.594C14.7491 7.31333 14.6018 7.94167 14.3071 8.479C14.0125 9.00767 13.6095 9.41933 13.0981 9.714C12.5955 10.0087 12.0235 10.156 11.3821 10.156ZM11.3821 9.116C12.0668 9.116 12.5998 8.88633 12.9811 8.427C13.3625 7.959 13.5531 7.35667 13.5531 6.62C13.5531 6.16933 13.4578 5.75767 13.2671 5.385C13.0765 5.00367 12.8165 4.70033 12.4871 4.475C12.1665 4.241 11.7981 4.124 11.3821 4.124C10.6975 4.124 10.1645 4.34933 9.78312 4.8C9.40178 5.25067 9.21112 5.84867 9.21112 6.594C9.21112 7.04467 9.30645 7.465 9.49712 7.855C9.68778 8.23633 9.94345 8.544 10.2641 8.778C10.5935 9.00333 10.9661 9.116 11.3821 9.116ZM16.2977 12.86V4.969C16.2977 4.67433 16.2241 4.46633 16.0767 4.345C15.9381 4.215 15.7561 4.15 15.5307 4.15L15.7777 3.24C16.5751 3.24 17.0734 3.55633 17.2727 4.189C17.3594 4.059 17.4981 3.90733 17.6887 3.734C17.8881 3.56067 18.1307 3.409 18.4167 3.279C18.7114 3.149 19.0451 3.084 19.4177 3.084C19.9377 3.084 20.4231 3.22267 20.8737 3.5C21.3331 3.76867 21.7014 4.163 21.9787 4.683C22.2561 5.19433 22.3947 5.81833 22.3947 6.555C22.3947 7.27433 22.2561 7.907 21.9787 8.453C21.7014 8.99033 21.3374 9.41067 20.8867 9.714C20.4447 10.0087 19.9637 10.156 19.4437 10.156C19.0451 10.156 18.6724 10.078 18.3257 9.922C17.9791 9.75733 17.6931 9.571 17.4677 9.363V12.86H16.2977ZM19.2097 9.116C19.7991 9.116 20.2757 8.88633 20.6397 8.427C21.0124 7.959 21.1987 7.348 21.1987 6.594C21.1987 6.074 21.1034 5.62767 20.9127 5.255C20.7307 4.88233 20.4837 4.59633 20.1717 4.397C19.8684 4.19767 19.5304 4.098 19.1577 4.098C18.7851 4.098 18.4471 4.19333 18.1437 4.384C17.8491 4.566 17.6237 4.76533 17.4677 4.982V8.31C17.6931 8.544 17.9531 8.739 18.2477 8.895C18.5424 9.04233 18.8631 9.116 19.2097 9.116ZM23.9385 13.016C23.6785 13.016 23.4488 12.99 23.2495 12.938C23.0588 12.886 22.9072 12.8253 22.7945 12.756L23.0545 11.781C23.1585 11.8417 23.2885 11.8937 23.4445 11.937C23.6005 11.9803 23.7738 12.002 23.9645 12.002C24.3285 12.002 24.6535 11.885 24.9395 11.651C25.2255 11.417 25.4985 10.9577 25.7585 10.273L26.0575 9.493H25.4335L22.7945 3.552L23.8345 3.084L26.3565 8.713L28.3195 3.136L29.3985 3.552L26.9155 10.338C26.6642 11.0313 26.3912 11.573 26.0965 11.963C25.8018 12.353 25.4768 12.626 25.1215 12.782C24.7662 12.938 24.3718 13.016 23.9385 13.016ZM30.5742 10V3.24H31.7052V4.709C31.8178 4.423 31.9695 4.15867 32.1602 3.916C32.3508 3.66467 32.5892 3.46533 32.8752 3.318C33.1612 3.162 33.4948 3.084 33.8762 3.084C34.0062 3.084 34.1362 3.09267 34.2662 3.11C34.3962 3.11867 34.5045 3.136 34.5912 3.162L34.2402 4.371C34.0755 4.30167 33.8805 4.267 33.6552 4.267C33.3345 4.267 33.0268 4.358 32.7322 4.54C32.4462 4.722 32.2078 5.00367 32.0172 5.385C31.8352 5.76633 31.7442 6.25167 31.7442 6.841V10H30.5742ZM35.7666 10V3.24H36.9366V10H35.7666ZM36.3516 2.083C36.1262 2.083 35.9312 2.00067 35.7666 1.836C35.6106 1.67133 35.5326 1.48067 35.5326 1.264C35.5326 1.01267 35.6062 0.813333 35.7536 0.665999C35.9009 0.518666 36.1002 0.445 36.3516 0.445C36.5769 0.445 36.7676 0.527333 36.9236 0.692C37.0882 0.848 37.1706 1.03867 37.1706 1.264C37.1706 1.50667 37.0969 1.706 36.9496 1.862C36.8022 2.00933 36.6029 2.083 36.3516 2.083ZM41.4996 13.016C41.1009 13.016 40.7109 12.9683 40.3296 12.873C39.9569 12.7777 39.6232 12.6347 39.3286 12.444L39.7576 11.43C39.9656 11.5947 40.2082 11.729 40.4856 11.833C40.7629 11.9457 41.1009 12.002 41.4996 12.002C42.1149 12.002 42.5959 11.8373 42.9426 11.508C43.2979 11.1873 43.4756 10.6717 43.4756 9.961V9.129C43.3022 9.337 43.0509 9.53633 42.7216 9.727C42.4009 9.909 42.0152 10 41.5646 10C41.0532 10 40.5679 9.87 40.1086 9.61C39.6492 9.34133 39.2766 8.95133 38.9906 8.44C38.7046 7.92867 38.5616 7.31333 38.5616 6.594C38.5616 5.918 38.7002 5.31567 38.9776 4.787C39.2636 4.25833 39.6449 3.84233 40.1216 3.539C40.5982 3.23567 41.1226 3.084 41.6946 3.084C42.0759 3.084 42.4226 3.149 42.7346 3.279C43.0466 3.409 43.3152 3.56933 43.5406 3.76V3.24H44.6066V9.844C44.6066 10.5893 44.4766 11.196 44.2166 11.664C43.9566 12.132 43.5926 12.4743 43.1246 12.691C42.6652 12.9077 42.1236 13.016 41.4996 13.016ZM41.8246 8.96C42.1712 8.96 42.4832 8.882 42.7606 8.726C43.0379 8.57 43.2632 8.388 43.4366 8.18V4.644C43.2459 4.50533 43.0162 4.37967 42.7476 4.267C42.4789 4.15433 42.1669 4.098 41.8116 4.098C41.4562 4.098 41.1226 4.19333 40.8106 4.384C40.4986 4.57467 40.2429 4.852 40.0436 5.216C39.8529 5.57133 39.7576 6.009 39.7576 6.529C39.7576 7.023 39.8529 7.452 40.0436 7.816C40.2429 8.18 40.4986 8.46167 40.8106 8.661C41.1226 8.86033 41.4606 8.96 41.8246 8.96ZM46.6211 10V0.38H47.7911V4.319C48.0337 3.96367 48.3414 3.669 48.7141 3.435C49.0867 3.201 49.5244 3.084 50.0271 3.084C50.7897 3.084 51.3574 3.31367 51.7301 3.773C52.1114 4.23233 52.3021 4.839 52.3021 5.593V10H51.1321V5.723C51.1321 5.23767 51.0194 4.84767 50.7941 4.553C50.5687 4.25833 50.2524 4.111 49.8451 4.111C49.4464 4.111 49.0651 4.254 48.7011 4.54C48.3457 4.81733 48.0424 5.14667 47.7911 5.528V10H46.6211ZM56.6804 10.156C56.0304 10.156 55.5147 9.94367 55.1334 9.519C54.7607 9.08567 54.5744 8.47033 54.5744 7.673V4.501H53.4044V3.487H54.6004L54.8474 1.355H55.7444V3.487H57.6164V4.501H55.7444V7.764C55.7444 8.26667 55.8484 8.61767 56.0564 8.817C56.2731 9.01633 56.5287 9.116 56.8234 9.116C57.0401 9.116 57.2437 9.08133 57.4344 9.012C57.6337 8.94267 57.8157 8.86033 57.9804 8.765L58.3054 9.701C58.1321 9.805 57.8981 9.90467 57.6034 10C57.3087 10.104 57.0011 10.156 56.6804 10.156ZM68.1759 10.156C67.2052 10.156 66.3819 9.95233 65.7059 9.545C65.0299 9.13767 64.5185 8.57867 64.1719 7.868C63.8252 7.15733 63.6519 6.35133 63.6519 5.45C63.6519 4.57467 63.8295 3.78167 64.1849 3.071C64.5402 2.36033 65.0559 1.797 65.7319 1.381C66.4079 0.956333 67.2269 0.744 68.1889 0.744C69.1682 0.744 69.9915 0.947666 70.6589 1.355C71.3349 1.76233 71.8462 2.32133 72.1929 3.032C72.5482 3.74267 72.7259 4.54867 72.7259 5.45C72.7259 6.31667 72.5482 7.10967 72.1929 7.829C71.8375 8.53967 71.3175 9.10733 70.6329 9.532C69.9569 9.948 69.1379 10.156 68.1759 10.156ZM68.1889 9.337C68.9689 9.337 69.6232 9.17233 70.1519 8.843C70.6892 8.505 71.0922 8.04567 71.3609 7.465C71.6382 6.87567 71.7769 6.204 71.7769 5.45C71.7769 4.68733 71.6382 4.01567 71.3609 3.435C71.0835 2.85433 70.6762 2.39933 70.1389 2.07C69.6102 1.732 68.9602 1.563 68.1889 1.563C67.4175 1.563 66.7632 1.732 66.2259 2.07C65.6885 2.39933 65.2812 2.85867 65.0039 3.448C64.7352 4.02867 64.6009 4.696 64.6009 5.45C64.6009 6.204 64.7395 6.87567 65.0169 7.465C65.2942 8.04567 65.6972 8.505 66.2259 8.843C66.7632 9.17233 67.4175 9.337 68.1889 9.337ZM68.3579 8.362C67.8639 8.362 67.4262 8.245 67.0449 8.011C66.6635 7.777 66.3645 7.44333 66.1479 7.01C65.9312 6.568 65.8229 6.048 65.8229 5.45C65.8229 4.86933 65.9312 4.358 66.1479 3.916C66.3645 3.46533 66.6722 3.11433 67.0709 2.863C67.4695 2.61167 67.9332 2.486 68.4619 2.486C68.7392 2.486 68.9992 2.51633 69.2419 2.577C69.4932 2.63767 69.7359 2.72433 69.9699 2.837L69.6059 3.799C69.4239 3.70367 69.2375 3.63 69.0469 3.578C68.8649 3.51733 68.6655 3.487 68.4489 3.487C68.0069 3.487 67.6429 3.656 67.3569 3.994C67.0709 4.32333 66.9279 4.79567 66.9279 5.411C66.9279 6.00033 67.0709 6.47267 67.3569 6.828C67.6429 7.18333 68.0069 7.361 68.4489 7.361C68.6829 7.361 68.8995 7.32633 69.0989 7.257C69.2982 7.179 69.5062 7.07933 69.7229 6.958L70.0609 7.907C69.8269 8.04567 69.5669 8.15833 69.2809 8.245C69.0035 8.323 68.6959 8.362 68.3579 8.362ZM153.163 10V0.899999H154.398V10H153.163ZM156.743 10V0.899999H158.472L160.994 6.659L163.477 0.899999H165.245V10H164.01V2.473L161.579 7.946H160.357L157.913 2.473V10H156.743ZM169.977 10.104C169.483 10.104 169.05 10.091 168.677 10.065C168.313 10.039 167.949 10.0087 167.585 9.974V0.926C167.992 0.882667 168.391 0.852333 168.781 0.834999C169.171 0.809 169.617 0.796 170.12 0.796C170.9 0.796 171.572 0.917333 172.135 1.16C172.707 1.40267 173.175 1.73633 173.539 2.161C173.912 2.58567 174.185 3.07967 174.358 3.643C174.54 4.19767 174.631 4.79567 174.631 5.437C174.631 6.06967 174.54 6.66767 174.358 7.231C174.176 7.79433 173.894 8.29267 173.513 8.726C173.14 9.15067 172.659 9.48867 172.07 9.74C171.489 9.98267 170.792 10.104 169.977 10.104ZM170.016 9.025C170.796 9.025 171.433 8.87333 171.927 8.57C172.421 8.26667 172.785 7.84633 173.019 7.309C173.253 6.763 173.37 6.139 173.37 5.437C173.37 4.813 173.253 4.228 173.019 3.682C172.785 3.136 172.425 2.69833 171.94 2.369C171.455 2.031 170.835 1.862 170.081 1.862C169.83 1.862 169.6 1.87067 169.392 1.888C169.184 1.89667 168.993 1.90967 168.82 1.927V8.96C169.002 8.986 169.193 9.00333 169.392 9.012C169.591 9.02067 169.799 9.025 170.016 9.025ZM179.358 10.156C178.968 10.156 178.6 10.0867 178.253 9.948C177.915 9.80067 177.634 9.63167 177.408 9.441V10H176.316V0.38H177.486V3.942C177.66 3.74267 177.911 3.552 178.24 3.37C178.578 3.17933 178.977 3.084 179.436 3.084C179.956 3.084 180.442 3.22267 180.892 3.5C181.352 3.76867 181.72 4.163 181.997 4.683C182.275 5.19433 182.413 5.81833 182.413 6.555C182.413 7.09233 182.327 7.582 182.153 8.024C181.98 8.466 181.746 8.84733 181.451 9.168C181.165 9.48 180.84 9.72267 180.476 9.896C180.112 10.0693 179.74 10.156 179.358 10.156ZM179.046 9.116C179.471 9.116 179.844 9.012 180.164 8.804C180.494 8.596 180.749 8.30133 180.931 7.92C181.122 7.53867 181.217 7.09667 181.217 6.594C181.217 6.074 181.122 5.62767 180.931 5.255C180.749 4.88233 180.502 4.59633 180.19 4.397C179.887 4.19767 179.549 4.098 179.176 4.098C178.804 4.098 178.466 4.19333 178.162 4.384C177.868 4.566 177.642 4.76533 177.486 4.982V8.596C177.686 8.752 177.92 8.87767 178.188 8.973C178.457 9.06833 178.743 9.116 179.046 9.116ZM184.615 10.156C184.381 10.156 184.177 10.0693 184.004 9.896C183.831 9.72267 183.744 9.519 183.744 9.285C183.744 9.01633 183.822 8.804 183.978 8.648C184.134 8.492 184.346 8.414 184.615 8.414C184.84 8.414 185.04 8.50067 185.213 8.674C185.395 8.84733 185.486 9.051 185.486 9.285C185.486 9.545 185.404 9.75733 185.239 9.922C185.074 10.078 184.866 10.156 184.615 10.156ZM190.002 10.156C189.361 10.156 188.798 10.0087 188.312 9.714C187.836 9.41067 187.467 8.99467 187.207 8.466C186.947 7.92867 186.817 7.31333 186.817 6.62C186.817 5.97 186.947 5.37633 187.207 4.839C187.476 4.30167 187.857 3.877 188.351 3.565C188.845 3.24433 189.426 3.084 190.093 3.084C190.475 3.084 190.808 3.11867 191.094 3.188C191.389 3.25733 191.671 3.357 191.939 3.487L191.588 4.475C191.346 4.35367 191.112 4.267 190.886 4.215C190.67 4.15433 190.427 4.124 190.158 4.124C189.552 4.124 189.04 4.345 188.624 4.787C188.217 5.22033 188.013 5.82267 188.013 6.594C188.013 7.062 188.1 7.48667 188.273 7.868C188.447 8.24933 188.685 8.55267 188.988 8.778C189.3 9.00333 189.664 9.116 190.08 9.116C190.41 9.116 190.691 9.08133 190.925 9.012C191.159 8.934 191.411 8.82567 191.679 8.687L192.043 9.675C191.775 9.82233 191.471 9.93933 191.133 10.026C190.804 10.1127 190.427 10.156 190.002 10.156ZM196.124 10.156C195.483 10.156 194.907 10.0087 194.395 9.714C193.884 9.41067 193.481 8.99467 193.186 8.466C192.9 7.92867 192.757 7.31333 192.757 6.62C192.757 5.892 192.905 5.26367 193.199 4.735C193.494 4.20633 193.897 3.799 194.408 3.513C194.92 3.227 195.492 3.084 196.124 3.084C196.757 3.084 197.325 3.227 197.827 3.513C198.339 3.799 198.742 4.20633 199.036 4.735C199.34 5.255 199.491 5.87467 199.491 6.594C199.491 7.31333 199.344 7.94167 199.049 8.479C198.755 9.00767 198.352 9.41933 197.84 9.714C197.338 10.0087 196.766 10.156 196.124 10.156ZM196.124 9.116C196.809 9.116 197.342 8.88633 197.723 8.427C198.105 7.959 198.295 7.35667 198.295 6.62C198.295 6.16933 198.2 5.75767 198.009 5.385C197.819 5.00367 197.559 4.70033 197.229 4.475C196.909 4.241 196.54 4.124 196.124 4.124C195.44 4.124 194.907 4.34933 194.525 4.8C194.144 5.25067 193.953 5.84867 193.953 6.594C193.953 7.04467 194.049 7.465 194.239 7.855C194.43 8.23633 194.686 8.544 195.006 8.778C195.336 9.00333 195.708 9.116 196.124 9.116ZM201.047 10V3.24H202.178V4.371C202.421 4.007 202.728 3.70367 203.101 3.461C203.474 3.20967 203.898 3.084 204.375 3.084C204.912 3.084 205.35 3.214 205.688 3.474C206.035 3.734 206.277 4.08067 206.416 4.514C206.685 4.11533 207.001 3.77733 207.365 3.5C207.738 3.22267 208.197 3.084 208.743 3.084C209.48 3.084 210.026 3.318 210.381 3.786C210.745 4.24533 210.927 4.84767 210.927 5.593V10H209.757V5.684C209.757 5.216 209.649 4.839 209.432 4.553C209.215 4.25833 208.916 4.111 208.535 4.111C208.145 4.111 207.781 4.25833 207.443 4.553C207.114 4.839 206.823 5.177 206.572 5.567V10H205.402V5.684C205.402 5.216 205.294 4.839 205.077 4.553C204.86 4.25833 204.561 4.111 204.18 4.111C203.799 4.111 203.439 4.254 203.101 4.54C202.763 4.81733 202.468 5.14667 202.217 5.528V10H201.047ZM212.929 12.08L212.292 11.716C212.639 11.274 212.916 10.8277 213.124 10.377C213.341 9.92633 213.506 9.41067 213.618 8.83L214.762 9.155C214.676 9.81367 214.468 10.39 214.138 10.884C213.818 11.378 213.415 11.7767 212.929 12.08ZM220.867 10V0.899999H222.102V10H220.867ZM224.317 10V3.24H225.448V4.371C225.691 4.007 225.999 3.70367 226.371 3.461C226.753 3.20967 227.203 3.084 227.723 3.084C228.486 3.084 229.054 3.31367 229.426 3.773C229.808 4.23233 229.998 4.839 229.998 5.593V10H228.828V5.723C228.828 5.23767 228.711 4.84767 228.477 4.553C228.252 4.25833 227.936 4.111 227.528 4.111C227.13 4.111 226.753 4.254 226.397 4.54C226.042 4.81733 225.739 5.14667 225.487 5.528V10H224.317ZM234.741 10.156C234.099 10.156 233.536 10.0087 233.051 9.714C232.574 9.41067 232.206 8.99467 231.946 8.466C231.686 7.92867 231.556 7.31333 231.556 6.62C231.556 5.97 231.686 5.37633 231.946 4.839C232.214 4.30167 232.596 3.877 233.09 3.565C233.584 3.24433 234.164 3.084 234.832 3.084C235.213 3.084 235.547 3.11867 235.833 3.188C236.127 3.25733 236.409 3.357 236.678 3.487L236.327 4.475C236.084 4.35367 235.85 4.267 235.625 4.215C235.408 4.15433 235.165 4.124 234.897 4.124C234.29 4.124 233.779 4.345 233.363 4.787C232.955 5.22033 232.752 5.82267 232.752 6.594C232.752 7.062 232.838 7.48667 233.012 7.868C233.185 8.24933 233.423 8.55267 233.727 8.778C234.039 9.00333 234.403 9.116 234.819 9.116C235.148 9.116 235.43 9.08133 235.664 9.012C235.898 8.934 236.149 8.82567 236.418 8.687L236.782 9.675C236.513 9.82233 236.21 9.93933 235.872 10.026C235.542 10.1127 235.165 10.156 234.741 10.156ZM239.053 10.156C238.819 10.156 238.615 10.0693 238.442 9.896C238.268 9.72267 238.182 9.519 238.182 9.285C238.182 9.01633 238.26 8.804 238.416 8.648C238.572 8.492 238.784 8.414 239.053 8.414C239.278 8.414 239.477 8.50067 239.651 8.674C239.833 8.84733 239.924 9.051 239.924 9.285C239.924 9.545 239.841 9.75733 239.677 9.922C239.512 10.078 239.304 10.156 239.053 10.156Z" fill="#4A90E2"/>
<path d="M79.8134 10V8.96H81.6724V2.395L79.9304 3.708L79.2934 2.837L81.9844 0.899999H82.8424V8.96H84.3894V10H79.8134ZM89.1683 10.156C88.6657 10.156 88.215 10.0693 87.8163 9.896C87.4177 9.714 87.0537 9.46267 86.7243 9.142L87.4913 8.271C88.0113 8.817 88.592 9.09 89.2333 9.09C89.5887 9.09 89.918 8.973 90.2213 8.739C90.5247 8.49633 90.7673 8.11933 90.9493 7.608C91.14 7.09667 91.2353 6.438 91.2353 5.632C90.9667 5.87467 90.6677 6.07833 90.3383 6.243C90.009 6.40767 89.6537 6.49 89.2723 6.49C88.813 6.49 88.3753 6.386 87.9593 6.178C87.552 5.96133 87.2183 5.64933 86.9583 5.242C86.707 4.826 86.5813 4.31467 86.5813 3.708C86.5813 3.162 86.7027 2.66367 86.9453 2.213C87.1967 1.76233 87.5433 1.407 87.9853 1.147C88.4273 0.878333 88.9387 0.744 89.5193 0.744C89.97 0.744 90.3557 0.813333 90.6763 0.951999C90.997 1.09067 91.2657 1.27267 91.4823 1.498C91.6903 1.71467 91.8637 1.97033 92.0023 2.265C92.1497 2.551 92.258 2.93233 92.3273 3.409C92.3967 3.877 92.4313 4.488 92.4313 5.242C92.4313 6.39467 92.2883 7.335 92.0023 8.063C91.7163 8.78233 91.3263 9.311 90.8323 9.649C90.347 9.987 89.7923 10.156 89.1683 10.156ZM89.4673 5.528C89.7967 5.528 90.113 5.44567 90.4163 5.281C90.7283 5.11633 91.0013 4.917 91.2353 4.683V4.293C91.2353 3.46967 91.075 2.84567 90.7543 2.421C90.4423 1.99633 90.0177 1.784 89.4803 1.784C88.9863 1.784 88.566 1.95733 88.2193 2.304C87.8813 2.642 87.7123 3.09267 87.7123 3.656C87.7123 4.046 87.7947 4.384 87.9593 4.67C88.124 4.94733 88.3363 5.15967 88.5963 5.307C88.865 5.45433 89.1553 5.528 89.4673 5.528ZM96.9632 10.156C96.4606 10.156 96.0099 10.0693 95.6113 9.896C95.2126 9.714 94.8486 9.46267 94.5193 9.142L95.2863 8.271C95.8063 8.817 96.3869 9.09 97.0283 9.09C97.3836 9.09 97.7129 8.973 98.0163 8.739C98.3196 8.49633 98.5623 8.11933 98.7443 7.608C98.9349 7.09667 99.0303 6.438 99.0303 5.632C98.7616 5.87467 98.4626 6.07833 98.1333 6.243C97.8039 6.40767 97.4486 6.49 97.0673 6.49C96.6079 6.49 96.1703 6.386 95.7543 6.178C95.3469 5.96133 95.0133 5.64933 94.7533 5.242C94.5019 4.826 94.3763 4.31467 94.3763 3.708C94.3763 3.162 94.4976 2.66367 94.7403 2.213C94.9916 1.76233 95.3383 1.407 95.7803 1.147C96.2223 0.878333 96.7336 0.744 97.3143 0.744C97.7649 0.744 98.1506 0.813333 98.4713 0.951999C98.7919 1.09067 99.0606 1.27267 99.2773 1.498C99.4853 1.71467 99.6586 1.97033 99.7973 2.265C99.9446 2.551 100.053 2.93233 100.122 3.409C100.192 3.877 100.226 4.488 100.226 5.242C100.226 6.39467 100.083 7.335 99.7973 8.063C99.5113 8.78233 99.1213 9.311 98.6273 9.649C98.1419 9.987 97.5873 10.156 96.9632 10.156ZM97.2623 5.528C97.5916 5.528 97.9079 5.44567 98.2113 5.281C98.5233 5.11633 98.7963 4.917 99.0303 4.683V4.293C99.0303 3.46967 98.8699 2.84567 98.5493 2.421C98.2373 1.99633 97.8126 1.784 97.2753 1.784C96.7813 1.784 96.3609 1.95733 96.0143 2.304C95.6763 2.642 95.5073 3.09267 95.5073 3.656C95.5073 4.046 95.5896 4.384 95.7543 4.67C95.9189 4.94733 96.1313 5.15967 96.3913 5.307C96.6599 5.45433 96.9503 5.528 97.2623 5.528ZM105.213 10.156C104.199 10.156 103.428 9.74433 102.899 8.921C102.371 8.089 102.106 6.92767 102.106 5.437C102.106 3.93767 102.375 2.78067 102.912 1.966C103.458 1.15133 104.234 0.744 105.239 0.744C106.253 0.744 107.025 1.15567 107.553 1.979C108.082 2.80233 108.346 3.96367 108.346 5.463C108.346 6.96233 108.073 8.11933 107.527 8.934C106.99 9.74867 106.219 10.156 105.213 10.156ZM105.226 9.09C105.616 9.09 105.95 8.97733 106.227 8.752C106.513 8.518 106.73 8.13667 106.877 7.608C107.033 7.07933 107.111 6.36867 107.111 5.476C107.111 4.28 106.942 3.37 106.604 2.746C106.275 2.122 105.816 1.81 105.226 1.81C104.836 1.81 104.498 1.927 104.212 2.161C103.935 2.38633 103.718 2.76333 103.562 3.292C103.415 3.812 103.341 4.52267 103.341 5.424C103.341 6.62 103.506 7.53 103.835 8.154C104.173 8.778 104.637 9.09 105.226 9.09ZM110.811 6.074V5.008H115.231V6.074H110.811ZM118.06 10C118.034 9.844 118.021 9.68367 118.021 9.519C118.021 8.95567 118.116 8.453 118.307 8.011C118.506 7.56033 118.762 7.153 119.074 6.789C119.386 6.41633 119.715 6.074 120.062 5.762C120.417 5.44133 120.747 5.138 121.05 4.852C121.362 4.55733 121.618 4.26267 121.817 3.968C122.016 3.67333 122.116 3.36567 122.116 3.045C122.116 2.681 121.982 2.382 121.713 2.148C121.444 1.90533 121.098 1.784 120.673 1.784C120.309 1.784 119.975 1.85767 119.672 2.005C119.377 2.14367 119.1 2.33433 118.84 2.577L118.19 1.784C118.537 1.472 118.918 1.22067 119.334 1.03C119.759 0.839333 120.248 0.744 120.803 0.744C121.314 0.744 121.761 0.843667 122.142 1.043C122.523 1.23367 122.818 1.498 123.026 1.836C123.243 2.174 123.351 2.551 123.351 2.967C123.351 3.383 123.26 3.76867 123.078 4.124C122.896 4.47933 122.662 4.813 122.376 5.125C122.09 5.437 121.782 5.74033 121.453 6.035C121.124 6.321 120.807 6.61567 120.504 6.919C120.201 7.22233 119.941 7.53867 119.724 7.868C119.516 8.19733 119.386 8.55267 119.334 8.934H123.338V10H118.06ZM128.598 10.156C127.584 10.156 126.813 9.74433 126.284 8.921C125.755 8.089 125.491 6.92767 125.491 5.437C125.491 3.93767 125.76 2.78067 126.297 1.966C126.843 1.15133 127.619 0.744 128.624 0.744C129.638 0.744 130.409 1.15567 130.938 1.979C131.467 2.80233 131.731 3.96367 131.731 5.463C131.731 6.96233 131.458 8.11933 130.912 8.934C130.375 9.74867 129.603 10.156 128.598 10.156ZM128.611 9.09C129.001 9.09 129.335 8.97733 129.612 8.752C129.898 8.518 130.115 8.13667 130.262 7.608C130.418 7.07933 130.496 6.36867 130.496 5.476C130.496 4.28 130.327 3.37 129.989 2.746C129.66 2.122 129.2 1.81 128.611 1.81C128.221 1.81 127.883 1.927 127.597 2.161C127.32 2.38633 127.103 2.76333 126.947 3.292C126.8 3.812 126.726 4.52267 126.726 5.424C126.726 6.62 126.891 7.53 127.22 8.154C127.558 8.778 128.022 9.09 128.611 9.09ZM134.378 10V8.96H136.237V2.395L134.495 3.708L133.858 2.837L136.549 0.899999H137.407V8.96H138.954V10H134.378ZM144.253 10.156C143.707 10.156 143.2 10.0217 142.732 9.753C142.272 9.47567 141.904 9.051 141.627 8.479C141.349 7.907 141.211 7.18333 141.211 6.308C141.211 5.57133 141.306 4.878 141.497 4.228C141.696 3.56933 141.991 2.98867 142.381 2.486C142.779 1.98333 143.269 1.589 143.85 1.303C144.43 1.017 145.106 0.874 145.878 0.874C145.956 0.874 146.038 0.878333 146.125 0.887C146.22 0.887 146.302 0.891333 146.372 0.899999V1.966C146.302 1.95733 146.224 1.953 146.138 1.953C146.051 1.94433 145.969 1.94 145.891 1.94C144.946 1.94 144.166 2.23033 143.551 2.811C142.944 3.383 142.571 4.17167 142.433 5.177C142.675 4.943 142.987 4.73067 143.369 4.54C143.75 4.34067 144.183 4.241 144.669 4.241C145.154 4.241 145.587 4.35367 145.969 4.579C146.35 4.80433 146.649 5.12067 146.866 5.528C147.091 5.92667 147.204 6.40333 147.204 6.958C147.204 7.59067 147.074 8.14967 146.814 8.635C146.562 9.11167 146.216 9.48433 145.774 9.753C145.332 10.0217 144.825 10.156 144.253 10.156ZM144.305 9.09C144.825 9.09 145.241 8.89933 145.553 8.518C145.873 8.13667 146.034 7.66433 146.034 7.101C146.034 6.53767 145.882 6.08267 145.579 5.736C145.275 5.38933 144.872 5.216 144.37 5.216C143.997 5.216 143.642 5.307 143.304 5.489C142.966 5.671 142.667 5.91367 142.407 6.217V6.503C142.424 7.31767 142.61 7.95467 142.966 8.414C143.33 8.86467 143.776 9.09 144.305 9.09Z" fill="black"/>
</svg>
